FFmpeg version SVN-r25716, Copyright (c) 2000-2010 the FFmpeg developers  built on Nov 10 2010 12:23:18 with gcc 4.1.2 20080704 (Red Hat 4.1.2-48)  configuration: --enable-libmp3lame --enable-shared --disable-mmx --arch=x86_64  libavutil     50.33. 0 / 50.33. 0  libavcore      0.12. 1 /  0.12. 1  libavcodec    52.94. 4 / 52.94. 4  libavformat   52.84. 0 / 52.84. 0  libavdevice   52. 2. 2 / 52. 2. 2  libavfilter    1.59. 0 /  1.59. 0  libswscale     0.12. 0 /  0.12. 0Seems stream 0 codec frame rate differs from container frame rate: 1200.00 (1200/1) -> 15.00 (15/1)Input #0, mov,mp4,m4a,3gp,3g2,mj2, from '/RAID10/data/converted_video_files/15788.mov':  Metadata:    major_brand     : qt      minor_version   : 537199360    compatible_brands: qt    Duration: 00:00:08.93, start: 0.000000, bitrate: 6142 kb/s    Stream #0.0(eng): Video: h264, yuv420p, 512x512, 6137 kb/s, 15 fps, 15 tbr, 600 tbn, 1200 tbc[buffer @ 0x10b265d0] w:512 h:512 pixfmt:yuv420pOutput #0, flv, to '/RAID10/data/converted_video_files/15788.flv':  Metadata:    encoder         : Lavf52.84.0    Stream #0.0(eng): Video: flv, yuv420p, 512x512, q=2-31, 600 kb/s, 1k tbn, 24 tbcStream mapping:  Stream #0.0 -> #0.0Press [q] to stop encodingframe=   33 fps=  0 q=11.2 size=     326kB time=2.17 bitrate=1234.2kbits/s    frame=   63 fps= 60 q=11.4 size=     435kB time=4.17 bitrate= 855.7kbits/s    frame=   96 fps= 60 q=11.5 size=     551kB time=6.38 bitrate= 708.6kbits/s    frame=  123 fps= 60 q=12.1 size=     675kB time=8.17 bitrate= 677.3kbits/s    frame=  134 fps= 60 q=11.8 Lsize=     723kB time=8.92 bitrate= 664.1kbits/s    video:721kB audio:0kB global headers:0kB muxing overhead 0.319040%